<?xml version="1.0" standalone="no"?><!DOCTYPE svg PUBLIC "-//W3C//DTD SVG 1.1//EN" "http://www.w3.org/Graphics/SVG/1.1/DTD/svg11.dtd"><svg t="1593765475207" class="icon" viewBox="0 0 1024 1024" version="1.1" xmlns="http://www.w3.org/2000/svg" p-id="2097" xmlns:xlink="http://www.w3.org/1999/xlink" width="200" height="200"><defs><style type="text/css"></style></defs><path d="M920.4 360.9c-21.2-26.2-52.7-41.2-86.4-41.2H684.3v-121c0-62.3-50.7-112.9-112.9-112.9H420.8l-130.5 234H66v607.9h296.1v-564l108.1-193.8h101.3c16 0 28.9 13 28.9 28.9v205.1H834c11.3 0 18.2 6.3 21.2 10.1 3.1 3.8 7.9 11.8 5.5 22.8l-85.4 406.9H448.1v84h395.3L942.9 454c6.9-33-1.3-66.9-22.5-93.1zM150 843.6V403.8h128.1v439.9H150z" p-id="2098" fill="#7db8ee"></path></svg>