<?xml version="1.0" standalone="no"?><!DOCTYPE svg PUBLIC "-//W3C//DTD SVG 1.1//EN" "http://www.w3.org/Graphics/SVG/1.1/DTD/svg11.dtd"><svg t="1603520128022" class="icon" viewBox="0 0 1024 1024" version="1.1" xmlns="http://www.w3.org/2000/svg" p-id="4780" xmlns:xlink="http://www.w3.org/1999/xlink" width="200" height="200"><defs><style type="text/css"></style></defs><path d="M512.1 227c34.7 0 67.4 13.5 91.9 38.1 24.6 24.6 38.1 57.2 38.1 91.9s-13.5 67.4-38.1 91.9c-24.6 24.6-57.2 38.1-91.9 38.1s-67.4-13.5-91.9-38.1c-24.6-24.6-38.1-57.2-38.1-91.9s13.5-67.4 38.1-91.9c24.5-24.6 57.2-38.1 91.9-38.1m0-30c-88.4 0-160 71.6-160 160s71.6 160 160 160 160-71.6 160-160-71.7-160-160-160zM667.1 607c46.9 0 85 38.1 85 85v20c0 46.9-38.1 85-85 85h-310c-46.9 0-85-38.1-85-85v-20c0-46.9 38.1-85 85-85h310m0-30h-310c-63.5 0-115 51.5-115 115v20c0 63.5 51.5 115 115 115h310c63.5 0 115-51.5 115-115v-20c0-63.5-51.5-115-115-115z" fill="#7db8ee" p-id="4781"></path></svg>