<?xml version="1.0" standalone="no"?><!DOCTYPE svg PUBLIC "-//W3C//DTD SVG 1.1//EN" "http://www.w3.org/Graphics/SVG/1.1/DTD/svg11.dtd"><svg t="1593767217062" class="icon" viewBox="0 0 1024 1024" version="1.1" xmlns="http://www.w3.org/2000/svg" p-id="2942" width="200" height="200" xmlns:xlink="http://www.w3.org/1999/xlink"><defs><style type="text/css"></style></defs><path d="M812.005748 61.178361c-63.290465 0-114.804722 51.513234-114.804722 114.804722l0 671.535483c0 63.290465 51.513234 114.804722 114.804722 114.804722 63.291488 0 114.804722-51.513234 114.804722-114.804722L926.810471 175.983083C926.810471 112.691595 875.296213 61.178361 812.005748 61.178361zM853.495698 847.518566c0 22.874987-18.614963 41.48995-41.48995 41.48995s-41.48995-18.614963-41.48995-41.48995L770.515798 175.983083c0-22.874987 18.614963-41.48995 41.48995-41.48995s41.48995 18.614963 41.48995 41.48995L853.495698 847.518566z" p-id="2943" fill="#7db8ee"></path><path d="M511.624447 186.400341c-63.291488 0-114.804722 51.513234-114.804722 114.840538l0 546.277688c0 63.290465 51.513234 114.804722 114.804722 114.804722 63.290465 0 114.804722-51.513234 114.804722-114.804722L626.429169 301.239855C626.428146 237.913575 574.914912 186.400341 511.624447 186.400341zM553.114396 847.518566c0 22.874987-18.614963 41.48995-41.48995 41.48995-22.874987 0-41.48995-18.614963-41.48995-41.48995L470.134497 301.239855c0-22.910802 18.614963-41.525766 41.48995-41.525766 22.874987 0 41.48995 18.614963 41.48995 41.525766L553.114396 847.518566z" p-id="2944" fill="#7db8ee"></path><path d="M211.243145 340.689333c-63.290465 0-114.804722 51.513234-114.804722 114.804722l0 392.024511c0 63.290465 51.513234 114.804722 114.804722 114.804722 63.291488 0 114.804722-51.513234 114.804722-114.804722L326.047868 455.494055C326.046844 392.20359 274.53361 340.689333 211.243145 340.689333zM252.733095 847.518566c0 22.874987-18.614963 41.48995-41.48995 41.48995s-41.48995-18.614963-41.48995-41.48995L169.753195 455.494055c0-22.874987 18.614963-41.48995 41.48995-41.48995s41.48995 18.614963 41.48995 41.48995L252.733095 847.518566z" p-id="2945" fill="#7db8ee"></path></svg>